<svg version="1.2" xmlns="http://www.w3.org/2000/svg" viewBox="1180 410 1080 260" width="1080" height="260">
	<style>
		.s0 { fill: #fefefe } 
	</style>
	<g id="Capa 1">
		<g id="&lt;Group&gt;">
			<path id="&lt;Compound Path&gt;" class="s0" d="m1319.56 515.82c22.63-6.76 33.9-21.95 33.5-45.21-0.71-43.46-46.65-47-102.07-47h-49.91c-0.69 0-1.27 0.51-1.4 1.19-0.13 0.69 0.28 1.37 0.93 1.62 0.06 0.02 5.77 2.4 5.77 19.82v186.32c0 17.64-5.89 20.98-5.92 21-0.61 0.29-0.94 0.96-0.79 1.62 0.15 0.66 0.73 1.13 1.41 1.13h95.33c46.03 0 79.44-29.36 79.44-69.81 0-39.52-18.43-62.7-56.29-70.68zm-90.71 15.42c5.31-5.35 17.09-11.5 43.16-11.5 55.72 0 80.56 20.49 80.56 66.44 0 44.42-36.48 60.18-67.72 60.18h-54.35c-1.08-3.25-1.65-7.99-1.65-13.8zm54.4-18.56c-23.58 0-41.86 2.61-54.4 7.75v-74.35c0-5.55 0.51-10.07 1.53-13.48h25.27c34.36 0 55.3 4.97 65.9 15.62 5.59 5.63 8.29 12.85 8.24 22.09 0 28.51-15.23 42.37-46.54 42.37z"/>
			<path id="&lt;Compound Path&gt;" class="s0" d="m1577.16 457.22c-51.29-44.71-125.38-43.96-165.16 1.68-19.27 22.11-27.7 51.35-23.72 82.35 3.96 30.94 19.8 59.89 44.6 81.5 25.24 22.01 56.02 32.97 85.52 32.97 30.35 0 59.34-11.61 79.52-34.76 39.77-45.64 30.46-119.09-20.76-163.74zm12.91 156.9c-30.83 35.37-94.24 30.74-141.35-10.32-22.81-19.89-38.44-45.32-44-71.62-5.52-26.16-0.38-49.95 14.48-67 13.91-15.96 34.45-23.78 57.14-23.78 27.59 0 58.36 11.57 84.21 34.1 47.11 41.07 60.36 103.25 29.52 138.62z"/>
			<path id="&lt;Compound Path&gt;" class="s0" d="m2239.42 538.67c-3.93-30.91-19.74-59.84-44.54-81.45-51.29-44.69-125.38-43.96-165.16 1.68-19.27 22.11-27.7 51.35-23.73 82.35 3.97 30.94 19.81 59.89 44.61 81.5 25.24 22.01 56.02 32.97 85.51 32.97 30.36 0 59.35-11.62 79.52-34.76 19.28-22.11 27.72-51.34 23.79-82.29zm-31.63 75.45c-14.87 17.06-37.74 25.4-64.35 23.53-26.79-1.9-54.14-13.92-77-33.85-47.11-41.06-60.36-103.25-29.53-138.62 13.92-15.96 34.45-23.78 57.15-23.78 27.59 0 58.35 11.57 84.21 34.1 22.86 19.93 38.5 45.38 44.04 71.66 5.51 26.12 0.35 49.91-14.52 66.96z"/>
			<path id="&lt;Path&gt;" class="s0" d="m1801.15 571.24q-0.95-1.35-1.9-2.73v55.03l-130.38-199.28c-0.27-0.4-0.72-0.65-1.21-0.65h-26.16c-0.64 0-1.2 0.42-1.38 1.04-0.18 0.61 0.07 1.28 0.61 1.62 0.07 0.05 7.03 4.74 7.03 19.97v186.32c0 17.63-5.74 20.99-5.77 21.01-0.61 0.29-0.92 0.96-0.77 1.62 0.15 0.66 0.73 1.12 1.4 1.12h17.02c0.66 0 1.22-0.46 1.38-1.1 0.17-0.65-0.15-1.32-0.74-1.64-0.05-0.03-5.94-3.37-5.94-21.01v-186.48q0-3.03 0.26-5.71c17.9 26.56 143.54 213.28 144.9 215.3 0.27 0.4 0.72 0.64 1.2 0.64h3.53c0.8 0 1.44-0.65 1.44-1.44l0.06-77.11q-0.81-1.13-1.58-2.24-1.49-2.13-3-4.28z"/>
			<path id="&lt;Path&gt;" class="s0" d="m1793.64 426.42c0.05 0.02 5.61 2.41 5.61 19.82v79.81q0.75-0.27 1.51-0.52 1.6-0.54 3.23-0.99 0.89-0.26 1.78-0.48l0.06-77.98c0-17.39 5.68-19.63 5.69-19.64 0.7-0.19 1.14-0.87 1.04-1.58-0.1-0.72-0.71-1.25-1.43-1.25h-17.01c-0.7 0-1.27 0.5-1.4 1.18-0.13 0.69 0.27 1.37 0.92 1.63z"/>
			<path id="&lt;Path&gt;" class="s0" d="m1848.19 608.69q-0.39-0.28-0.78-0.55-0.6-0.44-1.22-0.86l-9.71 24.83c-7.14 18.08-14.69 21.47-14.76 21.49-0.64 0.26-1.01 0.94-0.88 1.62 0.13 0.68 0.73 1.17 1.42 1.17h17.01c0.65 0 1.25-0.41 1.43-1.03 0.17-0.63-0.06-1.27-0.61-1.6-0.04-0.04-4-3.44 2.77-20.6l8.52-21.96q-1.04-0.8-2.07-1.63-0.56-0.44-1.12-0.88z"/>
			<path id="&lt;Compound Path&gt;" class="s0" d="m2016.2 653.62c-0.08-0.05-7.49-3.42-14.61-21.5l-81.2-207.66c-0.45-1.11-2.26-1.11-2.71 0l-39.67 101.46q1.08 0.33 2.12 0.7 1.16 0.45 2.31 0.9 0.68 0.28 1.36 0.53l27.19-69.57 54.76 140.26c-0.11-0.14-0.19-0.24-0.3-0.37l10.51 26.36q-7.06-3.72-14.05-7.53c-4.65-2.21-4.03-5.37-4.89-9.7-1.22-7.16-2.27-14.7-6.94-20.53-3.24-4.03-7.3-7.36-10.42-11.42-0.72-0.91-1.42-1.84-2.17-2.73q-1.54-1.84-3.31-3.48c-8.26-7.52-16.4-15.19-24.83-22.54-7-5.72-11.72-3.18-18.61-6.61-2.93-1.46-5.5-3.74-8.57-4.93-1.43-0.58-2.94-0.99-4.46-1.33-7.68-1.6-15.38-3.03-23.01-4.82-2.96-0.69-5.98-1.32-9.03-1.3-3.51-0.05-6.96 0.94-10.43 1.48-4.73 0.84-9.53 0.51-14.31 0.37-8.37-0.19-16.73 0.36-24.76 2.78l-0.07 0.02c-2.38 0.66-4.71 1.48-6.92 2.67-2.88 1.43-3.76 3.24-1.41 5.52 3.94 3.58 7.82 7.26 10.39 11.97 3.17 5.69 6.63 11.17 10.46 16.4-0.03 0.02-0.09 0.04-0.1 0.06 0.02 0.01 0.11 0.01 0.15 0.02 2.83 3.85 5.83 7.59 9.16 11.07 3.13 3.29 6.42 6.42 10.06 9.14 2.95 2.24 6.22 4.06 9.41 5.95 7.34 4.21 14.28 9.07 21.71 13.13 3.63 1.88 7.44 3.4 11.41 4.41 4.1 1.05 8.34 1.47 12.5 2.18 4.76 0.75 9.34 2.11 13.78 4 8.35 3.39 16.99 8.24 26.3 6.37 1.25-0.25 2.54-0.54 3.81-0.6 1.79-0.11 3.55 0.3 5.32 0.49 3.89 0.47 7.62-0.78 11.28-2.07 2.82-0.96 5.67-1.78 8.53-2.64 3.84-1.27 6.18-0.99 9.62 1.2q8.65 5.14 17.31 10.3l0.44 1.12v0.03c6.78 17.13 2.69 20.52 2.69 20.52-0.56 0.32-0.83 0.99-0.67 1.62 0.19 0.64 0.75 1.07 1.41 1.07h32.9c0.69 0 1.28-0.48 1.41-1.15 0.13-0.69-0.21-1.35-0.85-1.62zm-67.23-33.4c-4.71 1.33-9.53 3.62-14.42 3.73-0.88 0.01-1.74-0.11-2.6-0.25 3.59-1.57 8.35-5.71 11.36-8.06 0.45-0.4 1.31-0.96 1.5-1.41v-0.01c-0.49 0.01-1.34 0.61-1.88 0.87-3.51 1.98-8.66 6.57-11.95 8.44q-0.54-0.1-1.07-0.19c-0.89-0.18-1.78-0.17-2.67-0.1 3.01-1.41 9.69-6.32 12.15-8.15 0.51-0.38 1.1-0.86 1.51-1.3q0.3-0.33 0.24-0.42-0.08-0.09-0.55 0.12c-0.53 0.24-1.19 0.63-1.72 0.97-2.44 1.58-9.22 6.56-11.65 8.13-0.29 0.22-0.75 0.48-1.1 0.75-1.1 0.17-2.19 0.42-3.28 0.67q-1.25 0.25-2.5 0.33c5.83-2.57 14.79-9.05 18.72-13.11-4.73 3.27-13.65 10.34-19.27 13.12q-2.13 0.09-4.22-0.22c5.21-2.13 18.48-11.49 20.41-14.73-0.01-0.09-0.25 0.03-0.65 0.33-5.21 4.28-10.35 8.74-16.26 11.81-0.52 0.28-2.83 1.68-4.13 2.49q-2.15-0.37-4.26-1.03c7.09-2.36 14.89-8.44 20.3-12.73 0.58-0.48 1.63-1.34 1.87-1.89v-0.01c0.02-0.13-0.24-0.05-0.69 0.21-0.29 0.17-0.66 0.43-1.05 0.72-1.79 1.4-3.57 2.89-5.4 4.26-4.08 3.17-10.96 6.68-15.6 9.27q-1.48-0.48-2.93-1.04c7.7-3.72 16.92-10.23 22.96-15.96v-0.01c-6.89 5.05-13.74 10.53-21.26 14.69-0.44 0.26-1.31 0.8-1.91 1.19q-0.84-0.32-1.66-0.67-1.86-0.75-3.7-1.53c8.37-2.98 19.24-9.78 25.34-15.76-6.78 5.19-17.53 12.14-25.64 15.63q-1.83-0.77-3.66-1.53c6.57-2.58 23.74-14.13 25.45-17.36-0.02-0.08-0.25 0.07-0.64 0.42-5.59 5.46-12.42 9.35-19.09 13.3-0.4 0.24-4.26 2.26-6.3 3.4q-1.56-0.64-3.14-1.26c5.85-2.57 23.31-15.06 25.12-18.27-0.02-0.09-0.28 0.05-0.71 0.37-3.82 3.14-7.45 6.54-11.49 9.34-2.59 1.92-10.03 6.15-13.29 8.43q-1.28-0.51-2.58-0.97c-0.5-0.18-1.03-0.29-1.54-0.44 8.33-4.38 19.71-11.82 26.34-18.17-7.16 5.82-18.67 13.15-26.64 18.09q-1.58-0.45-3.19-0.77c8.27-4.42 19.35-12.06 25.73-18.68 0.74-0.78 0.72-0.83-0.09-0.11-6.72 6.24-17.91 13.67-25.74 18.77q-2.28-0.43-4.59-0.71c7.71-3.54 22.45-15.18 26.56-19.74 0.1-0.13 0.81-0.96 0.41-0.75l-0.02 0.01c-7.72 6.56-18.62 15.26-27.47 20.41q-2.77-0.32-5.53-0.67-0.27-0.05-0.53-0.1c9.16-5.22 21.12-13.03 28.86-20.09 0.5-0.47 1.41-1.41 1.5-1.85v-0.01c-0.2-0.39-1.74 1-2.16 1.36-2.03 1.91-4.16 3.7-6.47 5.26-6.27 4.44-12.88 8.47-19.08 13-0.6 0.53-2.21 1.67-2.96 2.27q-2.39-0.37-4.64-0.99c1.37-0.6 6.13-3.1 7.18-3.82 8.01-5.83 16.25-11.47 23.75-17.91 0.44-0.43 0.68-0.72 0.63-0.79-0.27-0.06-1.3 0.77-1.77 1.11-8.3 6.31-16.34 12.97-25.23 18.39-0.45 0.29-3.87 2.06-5.11 2.86q-2.66-0.76-5.16-1.81c7.54-2.59 26.65-15.77 32.76-21.48 0.26-0.29 0.96-0.96 0.74-1.19h-0.01c-0.43-0.05-1.63 0.84-2.2 1.27-3.54 2.84-7.1 5.65-10.78 8.34-5.41 4.11-14.35 9.35-20.28 12.61-0.23 0.14-0.37 0.24-0.51 0.34-1.65-0.71-3.26-1.51-4.85-2.36 11.14-4.75 24.32-14.06 34.1-20.85q1.49-1.05-0.06-0.08c-10.03 6.43-23.43 15.28-34.09 20.91q-2.22-1.18-4.4-2.48c10.93-4.66 26.45-14.11 36.01-20.84h-0.01c-10.04 6-25.66 15.34-36.21 20.72q-2.08-1.23-4.16-2.52c6.49-1 32.45-15.34 36.13-19.92-0.01-0.11-0.35 0.03-0.93 0.38-9.84 6.59-24.16 15.34-35.32 19.47q-1.62-1-3.25-2c1.76-0.6 5.04-2.08 5.48-2.23 10.5-4.42 20.3-10.27 29.73-16.66 1.08-0.75 1.12-0.84-0.04-0.19-9.76 5.63-19.4 11.6-29.85 15.94-0.49 0.23-4.22 1.99-5.74 2.88q-1.63-1-3.29-1.98c6.96-2.32 30.83-15.01 36.27-19.85 0.01-0.08-0.33 0.08-0.93 0.43-10.22 6.53-24.69 14.12-35.63 19.25q-4-2.36-7.96-4.77c10.45-4.16 24.83-10.75 34.79-16 0.57-0.31 1.71-0.99 1.87-1.36l0.01-0.01c-0.16-0.41-2.22 0.57-2.77 0.81-9.95 4.76-24.3 10.9-34.13 15.87-0.18 0.12-0.28 0.2-0.4 0.3q-1.89-1.17-3.74-2.41c11.61-3.66 26.14-10.15 36.63-15.87-11.08 4.53-22.25 9.49-33.29 14.17-0.38 0.17-2.37 1.09-3.46 1.61-1.19-0.8-2.39-1.6-3.53-2.47q-0.14-0.12-0.28-0.24c0.13-0.01 0.21-0.01 0.37-0.04 11.04-3.5 24.86-9.3 35.02-14.9 0.58-0.33 1.72-1.06 1.88-1.41v-0.02c0.04-0.15-0.32-0.1-0.94 0.15-0.35 0.14-0.79 0.34-1.23 0.58-10.04 5.72-24.41 10.08-34.9 14.82q-0.43 0.24-0.65 0.43-1.68-1.42-3.24-2.83c1.12-0.35 3.64-1.21 4.09-1.33 0.51-0.13 1.21-0.36 1.77-0.56 10.02-3.61 19.82-7.8 29.49-12.23 0.5-0.26 1.8-0.86 1.85-1.16-0.48-0.15-1.93 0.51-2.61 0.76q-14.73 6.09-29.44 12.19c-0.48 0.21-4.06 1.61-5.27 2.21-1.6-1.46-3.07-2.93-4.5-4.4 6.64-1.38 30.01-10.32 35.47-13.09 0.17-0.09 0.99-0.53 0.43-0.4l-0.02 0.01c-10.57 3.78-24.82 9.16-35.31 13.09q-0.44 0.18-0.65 0.3-1.54-1.59-2.96-3.19 0.02 0 0.03 0c9.49-2.98 23.26-7.8 32.68-10.98 0.64-0.23 1.79-0.72 2.05-1.09l0.01-0.01c0.01-0.4-1.55 0.06-2.06 0.2-9.45 3.33-23.43 7.69-32.8 11.2-0.14 0.07-0.22 0.13-0.32 0.19q-1.29-1.47-2.49-2.95c9.3-1.48 22.56-6.23 31.23-9.34 0.31-0.1 2.9-1.18 2.16-1.22-4.78 1.33-19.8 6.22-26.81 8.37-0.63 0.22-5.17 1.54-6.68 2.07q-1.29-1.6-2.49-3.22c1.64-0.13 4.55-0.59 5.09-0.69 9.36-2.34 19-4.7 27.74-8.74v-0.01c-9.28 2.41-18.68 5.42-27.97 8.02-0.53 0.18-3.6 0.65-5.11 1.06q-2.19-3-4.15-6.1c6.44-0.31 24.12-4.3 29.42-5.78 0.19-0.06 1.1-0.34 0.58-0.36h-0.02c-2.24 0.17-4.81 0.73-7.07 1.15-6.62 1.44-16.09 2.75-22.62 4.54-0.21 0.07-0.33 0.14-0.45 0.21q-0.65-1.04-1.29-2.1c1.02 0.09 4.48-0.45 4.89-0.51 6.46-1.31 12.97-2.45 19.37-4.07 0.53-0.15 1.59-0.44 1.78-0.71 0.01-0.09-0.25-0.11-0.72-0.07-0.49 0.04-1.2 0.15-1.75 0.26-6.43 1.32-12.88 2.61-19.3 3.94-0.55 0.14-3.64 0.65-4.39 0.96q-0.54-0.88-1.07-1.77-0.44-0.77-0.89-1.53 0.22-0.02 0.52-0.06c5.28-0.8 14.58-2.09 19.86-2.91 0.56-0.11 1.5-0.31 1.79-0.6l0.01-0.01c0.05-0.35-1.18-0.23-1.63-0.22-5.37 0.71-10.73 1.6-16.1 2.37-1.74 0.27-3.72 0.78-4.63 1.12q-1.04-1.8-2.16-3.55c1-0.03 3.91-0.35 4.37-0.39 3.59-0.35 7.22-0.73 10.81-1.11 0.63-0.09 1.65-0.17 2.09-0.44l0.01-0.01q0.05-0.1-0.46-0.15-0.35-0.03-0.9-0.03c-3.51 0.14-7.06 0.44-10.59 0.66-0.83 0.06-4.9 0.56-5.64 0.83q-0.05 0.02-0.09 0.04-1.05-1.62-2.19-3.17c0.85 0.03 3.83-0.23 4.45-0.28 2.71-0.22 5.45-0.42 8.16-0.65 2.67-0.3 2.72-1.01-0.04-0.86-2.87 0.26-5.76 0.55-8.61 0.83-0.53 0.08-3.24 0.36-4.21 0.63q-1.91-2.55-4.13-4.85c1.61 0.48 8 0.56 8.87 0.68 1.47 0.16 3.96-0.14 1.69-0.63-1.92-0.29-3.93-0.26-5.88-0.39-0.64 0-4.16-0.15-4.93 0.07-0.38-0.38-0.71-0.79-1.1-1.16-0.63-0.61-1.35-1.26-1.83-1.95q-0.31-0.48-0.16-0.75l0.01-0.02c1.1-1.01 6.41 0.97 8.39 1.46 9.18 2.37 17.5 7.02 26.34 10.29 3.97 1.45 8.2 2.13 12.19 3.47 3.03 1.01 5.96 2.29 8.81 3.72 8.53 4.42 17.53 7.89 25.87 12.63q3.38 1.87 6.82 3.61c5.93 2.93 11.91 5.75 17.77 8.83 7.96 4.04 16.12 7.69 23.88 12.1 11.15 6.46 21.4 14.42 33.13 19.87 5.11 2.55-0.99 3.53-3.26 4.4zm3.16-8.32c-6.05-2.96-11.98-6.22-17.64-9.89-17.01-11.12-35.93-18.78-54.14-27.66-3.65-1.94-7.04-4.41-10.86-6.07-6.1-2.89-12.77-4.55-18.81-7.56-4.05-2.07-7.96-4.45-12.23-6.04-5.13-2-10.69-2.65-15.78-4.79q-3.83-1.51-7.59-3.36c-1.62-0.81-3.22-1.72-4.5-3.02-1.73-1.72-2.69-4.18-4.28-6.07-0.8-1.01-2.96-2.93-0.97-0.13 0.84 1.29 3.18 4.23 2.21 5.32-0.83 0.52-2.09-0.06-3.01-0.29-3.01-0.95-6.05-1.97-9.08-2.88-1.54-0.49-3.26-0.73-4.68-1.5-1.4-0.89-0.8-1.7 0.27-2.31 1.76 0.83 5.64 2.35 7.1 3.01 0.42 0.14 1.09 0.55 1.48 0.42l0.01-0.01c0-0.19-0.35-0.45-0.56-0.62-1.25-0.98-2.81-1.6-4.28-1.9-0.15-0.04-2.29-0.73-3.48-1.04 0.84-0.43 1.86-0.74 2.48-0.89q1.41-0.38 2.83-0.73c1.04 1.41 5.69 5.22 6.1 5.64 0.57 0.56 2.53 1.49 1.26-0.06-0.98-0.99-4.91-4.36-5.99-5.25-0.22-0.15-0.47-0.34-0.72-0.5q4.82-1.24 9.75-1.94 0.02 0.05 0.05 0.1c0.24 0.45 0.65 1.05 0.97 1.52 1.7 2.51 5.6 7.86 7.3 10.36 0.39 0.51 0.92 1.32 1.42 1.56l0.01 0.01c0.37-0.17-0.69-1.89-0.89-2.27-1.7-2.75-5.71-8.31-7.93-10.69-0.18-0.19-0.41-0.44-0.63-0.63q2.69-0.37 5.4-0.5c0.18 0.4 0.45 0.91 0.7 1.32 2.22 3.6 6.99 10.99 9.24 14.58 0.27 0.39 0.66 1.1 0.94 1.2 0.13-0.23-0.22-0.96-0.37-1.37-1.62-3.98-6.73-11.19-9.18-14.67-0.23-0.3-0.54-0.73-0.84-1.09 0.55-0.02 1.09-0.09 1.64-0.09 1.98 0 4.11-0.12 5.92 0.72 1.89 0.87 3.1 2.71 4.36 4.46 1.52 2.17 2.95 4.41 4.18 6.76 0.7 1.31 1.84 4.04 2.48 4.9q0.33 0.39 0.27-0.15c-0.16-1.16-0.81-2.54-1.33-3.62-1.62-3.36-3.95-6.37-6.08-9.45-0.52-0.82-1.38-2.05-0.77-2.91 1.08-0.94 3.12-0.42 4.54-0.44 0.35 0.02 0.7-0.02 1.05-0.02 0.32 1.23 1.89 4.79 2.1 5.33q3.17 7.09 6.36 14.17c0.22 0.42 0.57 1.29 0.82 1.4 0.13-0.24-0.15-1.16-0.26-1.62-1.35-5.07-5.38-13.16-7.79-17.79-0.25-0.47-0.58-1.04-0.85-1.42q-0.03-0.04-0.06-0.08 2.52-0.04 5.01-0.46 0.03 0.18 0.13 0.49c0.16 0.5 0.42 1.22 0.63 1.79 2.52 6.47 5.99 15.37 8.71 21.89l0.01 0.02c0.24 0.28 0.05-0.58-0.01-0.87-1.21-5.03-6.58-18.91-9.34-23.33q0.15-0.02 0.31-0.05c1.49-0.27 2.99-0.59 4.5-0.88 2.26 7.39 6.08 17.75 8.41 24.89 0.19 0.57 0.44 1.28 0.62 1.76 0.19 0.49 0.32 0.74 0.36 0.68-0.74-5.61-6.49-21.63-8.96-26.94-0.03-0.06-0.13-0.25-0.22-0.43 1.49-0.29 2.99-0.53 4.49-0.64q0.04 0.2 0.13 0.55c0.15 0.53 1.96 5.66 2.15 6.27 2.55 7.79 4.82 15.7 7.49 23.32l0.01 0.01c0.2 0.26 0.04-0.63-0.01-0.95-1.13-5.85-6.94-23.99-9.64-29.2 0.85-0.06 1.71-0.1 2.57-0.05q0.83 0.03 1.67 0.13c2.03 7.66 5.94 19.5 8.14 27.26 0.18 0.6 0.41 1.38 0.59 1.89 0.18 0.53 0.32 0.79 0.37 0.73-0.36-5.77-6.36-23.98-8.66-29.4-0.03-0.06-0.13-0.27-0.23-0.47q2.11 0.25 4.2 0.72c0.31 1.31 1.38 4.31 1.53 4.95 2.56 8.74 5 18.2 7.83 27.31l0.01 0.02c0.2 0.24 0.03-0.79-0.02-1.16-1.18-7-6.48-25.31-9.15-31.07q0.85 0.19 1.69 0.39 1.42 0.32 2.83 0.63c2.21 9.15 5.55 21.33 7.86 30.36 0.21 0.69 0.53 2.1 0.91 2.48 0.16-0.49-0.23-1.92-0.37-2.62-2.21-9.04-4.9-21.4-8.31-30.2q1.84 0.42 3.69 0.83c0.02 0.13 0.04 0.25 0.08 0.45 2.67 10.09 6.49 24.65 9.42 34.98l0.01 0.02c0.2 0.42 0.13-0.35 0.09-0.7-0.82-6.12-6.76-28.44-9.43-34.71q2.55 0.57 5.11 1.12c0.03 0.49 0.23 1.34 0.3 1.81 1.69 8.4 5.13 20.68 6.86 29.24 0.23 1 0.52 2.61 0.95 3.37l0.01 0.01c0.27 0.22 0.18-0.8 0.16-1.16-0.73-7.13-5.74-27.32-8.11-33.24q2.74 0.58 5.48 1.14c0.01 0.46 0.12 1.1 0.17 1.47 1.66 9.37 4.2 23 5.88 32.35 0.58 2.86 1.15 2.67 0.76-0.11q-2.29-13.17-4.7-26.3c-0.17-0.89-1.26-6.19-1.53-7-0.05-0.14-0.09-0.21-0.13-0.32q1.72 0.35 3.44 0.71 0.68 0.15 1.35 0.32c0.01 0.12 0.01 0.21 0.03 0.37 1.52 10.87 4.03 26.13 5.69 36.84l0.01 0.02c0.13 0.44 0.15-0.24 0.14-0.59-0.14-5.97-3.8-29.51-5.71-36.6 1.46 0.35 2.91 0.74 4.28 1.34 0.56 0.24 1.1 0.56 1.65 0.85-0.03 0.63 0.07 1.5 0.09 1.98 0.83 9.02 1.99 21.74 2.83 30.74 0.07 0.62 0.23 1.82 0.46 2.12l0.01 0.01c0.1 0.07 0.18-0.22 0.21-0.79 0.03-0.53 0.01-1.31-0.02-1.92-0.57-9.04-1.39-21.8-2.84-30.73-0.05-0.28-0.13-0.73-0.24-1.14q1.79 1.02 3.57 2.1c-0.13 1.37 0.31 5.65 0.32 6.24q1.26 13.49 2.54 26.97c0.07 0.61 0.21 1.8 0.46 2.09h0.01c0.1 0.06 0.18-0.23 0.21-0.78 0.02-0.35 0.02-0.8 0.01-1.28-0.65-8.55-1.46-17.1-2.22-25.64-0.1-0.98-0.56-6.18-0.8-7.07-0.03-0.12-0.06-0.17-0.09-0.27q1.62 0.97 3.35 1.71 0 0.04 0.01 0.07c1.35 9.38 2.96 22.76 2.49 32.22-0.01 0.65-0.02 1.89 0.23 2.23l0.01 0.01c0.38 0.11 0.53-1.48 0.6-2.03 0.41-9.49-0.87-23-2.88-32.3 0.23 0.09 0.44 0.22 0.67 0.3 1.11 0.42 2.28 0.7 3.45 0.94-0.02 0.11-0.04 0.21-0.05 0.39-0.03 0.52-0.02 1.31 0.02 1.91 0.67 9.77 1.34 22.99 2.21 32.69 1.03-9.91-0.7-23.35-1.55-33.23-0.05-0.45-0.15-1.21-0.29-1.7q1.63 0.29 3.27 0.58c0.6 10.3 2.11 25.83 2.85 35.86 0.07 0.61 0.14 0.92 0.2 0.84 0.7-6.39-1.52-30.31-2.74-36.64 1.84 0.35 3.63 0.84 5.27 1.77-0.01 0.08-0.03 0.12-0.04 0.21-0.05 0.48-0.07 1.14-0.06 1.68 0.06 3.9 0.1 10.61 0.7 14.48 0.21 1.4 0.43 2.8 0.52 4.21 0.22 4.92-0.19 9.87-0.01 14.78 0.33 2.91 0.77-0.77 0.73-1.61 0.04-4.48 0.28-8.99 0.1-13.47-0.16-2.73-0.78-5.45-0.96-8.2-0.19-2.3-0.12-7.37-0.16-9.67-0.02-0.57-0.07-1.4-0.21-2.07 1.24 0.73 2.42 1.61 3.56 2.54q0.26 0.24 0.52 0.47c-0.01 0.08-0.01 0.11-0.01 0.2-0.01 0.55 0.01 1.38 0.03 2.03 0.4 9.34 0.45 23.79 1.02 33.19l0.01 0.01c0.13 0.28 0.23-0.72 0.27-1.09 0.59-6.83 0.31-27.19-1.02-34.06 1.47 1.3 2.92 2.62 4.37 3.94-0.01 0.07-0.02 0.11-0.03 0.2-0.05 0.53-0.06 1.31-0.05 1.92 0.28 9.39-0.48 23.12 0.81 32.4 0.18-0.67 0.02-2.33 0.02-3.22-0.35-7.99-0.25-16.02-0.37-24.03-0.04-0.9 0.16-5.03-0.01-6.94q1.91 1.71 3.81 3.43c0.01 0.65 0.11 1.48 0.11 1.98 0.65 8.35 1.2 20.64 2.04 29.23v0.01c0.15 0.23 0.2-0.8 0.23-1.15 0.31-6.55-0.77-23.42-2.08-29.8q1.66 1.51 3.31 3.02 0 0 0 0c0 0.54 0.04 1.33 0.07 1.95 0.5 8.32 1.1 19.38 1.77 27.52v0.02c0.13 0.34 0.22-0.49 0.26-0.81 0.44-5.43-0.25-21.58-1.71-28.32q2.02 1.86 4.03 3.73-0.01 0.05-0.01 0.11c-0.03 0.51-0.03 1.25-0.01 1.83 0.41 7.72 0.84 18.29 1.39 25.99 0.14 1.03 0.36 1.12 0.49 0.06 0.39-7.74-0.84-18.32-1.32-26.04-0.03-0.42-0.08-1.05-0.17-1.6q2.37 2.19 4.74 4.38c1.36 1.29 2.74 2.56 3.96 3.98 0.36 0.41 0.68 0.85 1.01 1.28-0.13 6.54 0.82 18.57 0.78 24.56 0.03 0.63-0.05 1.76 0.14 2.21 0.23-0.41 0.29-1.58 0.39-2.2 0.59-5.89 0.09-17.65-1.02-24.21 0.92 1.2 1.82 2.43 2.85 3.53 0.55 0.6 1.16 1.15 1.75 1.71q-0.03 0.16-0.04 0.47c-0.03 0.47-0.01 1.17 0.01 1.73 0.18 4.98 0.02 14.19 0.21 19.2 0.03 0.51 0.05 1.4 0.19 1.7l0.01 0.01q0.09 0.1 0.19-0.44c0.07-0.35 0.14-0.9 0.18-1.33 0.37-5.13 0.68-17-0.56-21.16q0.38 0.36 0.75 0.73 1.36 1.24 2.58 2.62-0.01 0.04-0.01 0.09c-0.06 0.47 0.09 4.16 0.1 4.72q0.16 7.88 0.33 15.76c0.03 0.48 0.02 1.42 0.2 1.63 0.23-0.15 0.31-1.04 0.4-1.5 0.76-5.26 0.21-10.54-0.23-15.78-0.06-0.54-0.22-3.14-0.42-4.52q1.26 1.44 2.44 2.96c1.17 1.49 2.07 3.05 2.35 4.9 0.4 4.29 0.01 8.65 0.03 12.94 0.04 0.67-0.11 1.86 0.15 2.31h0.01q0.1-0.01 0.22-0.52 0.09-0.33 0.18-0.84c0.52-3.05 0.37-6.19 0.14-9.29-0.06-0.72-0.26-4.01 0.99-2.28 0.52 0.81 0.95 1.92 1.19 2.87 0.75 2.75-0.02 5.59 0.22 8.54 0.08 0.98 0.11 2.11 0.26 3.05 0.11 0.84 0.31 1.28 0.46 0.05 0.14-1.23 0.03-2.99 0.22-4.22 0.33-0.69 0.78 2.89 0.86 3.71 0.52 3.82-0.1 5.43-3.63 3.55z"/>
			<path id="&lt;Path&gt;" class="s0" d="m1930.11 645.61l0.36-0.35v-0.01z"/>
			<path id="&lt;Path&gt;" class="s0" d="m1951.34 655.1l0.02-0.51-0.03 0.51z"/>
			<path id="&lt;Path&gt;" class="s0" d="m1932.97 596.51c0.03 0.61 0.08 1.72 0.3 2.06l0.01 0.01c0.09 0.09 0.2-0.15 0.28-0.64 0.1-0.51 0.16-1.29 0.18-1.9 0.19-8.03-0.16-18.75-1.45-26.66-0.19 8.13 0.66 18.96 0.68 27.13z"/>
			<path id="&lt;Path&gt;" class="s0" d="m1820.45 535.7c-0.32-0.35-0.85-1.01-1.11-1.1l-0.01 0.01c-0.01 0.25 0.49 0.97 0.72 1.37q3.66 5.81 7.31 11.61c0.36 0.49 0.84 1.48 1.27 1.68 0.08-0.48-0.43-1.47-0.65-2.04-1.83-4.27-4.51-8.04-7.53-11.53z"/>
			<path id="&lt;Path&gt;" class="s0" d="m1839.52 595.27c11.18-4.9 25.38-11.27 35.01-18.99q1.44-1.16-0.06-0.09c-9.9 7.29-24.18 13.37-34.95 19.08z"/>
			<path id="&lt;Path&gt;" class="s0" d="m1838.47 557.67c-8.25 2.04-16.54 4.65-24.81 6.89-0.68 0.24-5.68 0.89-6.03 1.24 6.43-0.41 23.79-4.91 29.94-7.54 0.17-0.08 1.25-0.55 0.91-0.59z"/>
			<path id="&lt;Path&gt;" class="s0" d="m1941.08 620.54c-1.53 1.04-2.92 2.8 0 1.04 1.8-1.23 3.57-2.54 5.36-3.79 0.61-0.47 1.5-1.07 1.8-1.71l0.01-0.02c-0.37-0.75-6.26 3.96-7.17 4.48z"/>
		</g>
	</g>
</svg>