<svg version="1.2" xmlns="http://www.w3.org/2000/svg" viewBox="0 4.092726157978177e-12 1080 1079.999999999996" width="1080" height="1080">
	<style>
		.s0 { fill: #b86c3b } 
	</style>
	<g id="Capa 1">
		<g id="&lt;Group&gt;">
			<g id="&lt;Group&gt;">
				<path id="&lt;Compound Path&gt;" class="s0" d="m6491.46 63.86c24.5 29.84 41.65 64.31 55.62 100.21 7.89 20.49 14.94 41.47 26.88 60.07 8.45 13.75 18.74 26.66 24.78 41.66 5.47 12.89 8.1 26.82 10.42 40.6 5.91 35.57 13.48 70.78 20.26 106.19 1.25 7.1 2.19 14.2 2.26 21.29 0.37 15.15-4.75 30.11-5.78 45.1-2.4 35.32 16.73 50.86 4.85 90.73-16.26 48.74-34.43 96.89-51.73 145.26-2.58 6.9-5.47 13.66-8.9 20.19-2.47 4.74-5.16 9.36-7.75 14.04-11.74 20.43-18.68 43.57-30.07 64.45-16.49 30.12-46.64 47.92-74.83 65.77-16.88 11.31-31.36 14.27-32.55 37.89-4.06 38.43-7.44 77.1-11.04 115.51-0.79 3.48-2.12 6.75-4.16 9.43-5.39 7.43-16.1 8.5-18.72-1.22-1.9-6.9-0.39-14.66 0.43-21.75 4.53-31.85 9.14-63.65 13.66-95.44 3.17-18.47 0.24-28.9-11.92-42.94-8.73-10.6-17.25-21.27-26.3-31.56-11.95-13.26-23.87-26.85-28.73-44.18-2.32-7.86-3.71-16.07-7.38-23.46-2.49-5.3-5.99-10.23-9.25-15.13-24.43-36.21-19.11-81.43-19.49-122.91 0.14-22.17-2.16-44.02-7.41-65.56-4.34-18.92-10.06-37.64-12.85-56.9-2.74-18.64-3.04-37.5-1.46-56.24 4.07-38.72 12.44-76.76 17.32-115.37 2.36-16.87 4.32-33.99 8.59-50.47 5.12-20.25 12.59-39.75 21-58.85 21.01-48 49.82-91.3 82.17-132.24 15.42-19.25 24.18-42.23 32.41-65.3 5.51-13.97 14.76-13.45 25.92-3.78 8.98 7.28 16.56 15.7 23.57 24.67zm-43.73 789.68c1.46-1.94 6.78-3.4 9.54-4.72 18.18-7.72 37.39-13.74 54.87-23.03 7.36-4.48 12.42-11.07 16.64-18.67 6.12-10.74 11.75-21.77 15.88-33.45 1.98-5.4 3.93-10.83 6.33-16.05 4.17-9.25 10.2-17.61 14.62-26.76 3.85-7.71 6.82-15.82 9.88-23.87 16.16-43.87 32.5-87.63 47.43-131.92 1.98-6.52 3.62-13.09 4.54-19.72 3.95-21.33-6.94-41.65-7.53-62.74-1.25-18.51 4.93-36.94 5.33-55.24 0.14-9.27-1.34-18.48-3.04-27.59-6.47-32.96-12.99-65.91-18.35-99.1-1.96-12.21-4.24-24.62-8.59-36.15-6.16-17.5-17.96-32.27-27.91-47.65-5.66-8.85-10.74-18.07-14.38-27.95-2.57-6.01-3.99-15.59-9.89-18.52-4.73-1.06-8.44 4.76-10.98 8.41-9.31 14.52-17.96 29.73-29.35 42.54-3.71 4.1-8.39 9.33-13 12.05-1.47 0.82-1.88 0.5-1.13-0.89 2.49-4.22 12.06-13.9 16.38-19.21 7.8-9.37 14.78-19.39 21.29-29.69 5.24-8.42 10.92-16.82 11.25-26.37 0.37-9.21-3.92-18.04-7.41-26.41-12.93-30.18-31.85-57.49-52.13-83.21-4.29-5.87-17.18-20.53-19.53-6.91-0.74 7.39 1.28 15.1 1.91 22.51 1.51 14.5 2.57 29.18 3.87 43.66 0.63 4.29 0.41 10.65 4.08 13.26 6.32 2.19 14.69-12.93 18.68-18.78 8.34-13.41 4.05-0.83 1.15 4.34-5.2 10.08-13.96 18.52-18.17 28.93-3.25 7.72-4.3 16.12-4.9 24.42-0.79 12.84-1.06 25.51-0.81 38.19-0.08 25.37 7 50.12 7.58 75.42 0.83 20.94-2.35 41.77-3.98 62.6-2.09 30.97 2.66 62.23 1.16 93.24-0.3 19.12-4.75 37.91-6.54 56.83-5.47 92.99-4.54 186.89-21.63 278.75-5.55 30.5-8.93 61.43-10.75 92.35-1.76 18.3 6.16 18.11 21.46 9.13 3.33-1.77 17.73-10.04 14.24-10.21-5.57 1.34-12.82 4.96-18.3 6.51-5.5 1.56-3.97-0.07-0.62-2.02 3.74-2.3 8.46-4.41 12.5-6.53 12.1-6.19 25.53-7.96 35.85-15.99 3.63-2.73 7.58-6.52 10.06-10.15 5.15-8.39-8.44-1.69-11.43-0.16-12.72 6.45-25.79 12.61-39.67 15.81-1.52 0.35-2.84 0.61-3.89 0.77-1.57 0.23-2.48 0.22-2.6-0.03zm-0.38-806.9c-0.93-0.11-1.9 0.61-2.89 2.02-2.11 3.27-3.57 7.47-5.06 11.22-10.79 28.31-27.83 53.3-46.49 76.94-32.87 43.37-59.72 89.46-79.56 153.48-8.9 34.36-11.88 70.26-17.63 105.3-7.47 49.17-17.68 95.96-4.13 145.37 6.35 23.72 14.76 47.13 16.18 71.83 1.33 23.69 0.49 47.34 0.74 71.06-0.04 27.7 2.52 56.32 18.4 79.69 6.32 8.94 13.14 17.87 15.33 28.81 1.62 6.98 2.78 14.14 5.62 20.76 9.11 20.58 27.38 36.98 41.35 54.63 7.69 8.08 22.65 32.27 24.45 6.03 2.37-59.41 18.02-117 25.71-175.76 4.98-40.74 6.06-81.85 9.13-122.78 2.68-30.3 4.11-60.68 6.04-91.04 0.82-11.8 2-23.56 3.27-35.32 5.33-43.8 4.16-88.16 7.85-132.15 1.01-14.65 1.27-29.35 0.17-43.98-1.33-19.31-5.95-38.47-6.81-57.88-1.77-43.32 3.24-86.86-2.93-130.04-1.4-9.23-2.41-35.29-8.64-38.17z"/>
			</g>
			<g id="&lt;Group&gt;">
				<path id="&lt;Path&gt;" class="s0" d="m6629.12 523.7c2.34-0.68-1.4 1.93-2.11 2.45-23.16 15.64-122.96 68.66-151.72 77.08-0.43-0.12 0.75-0.96 3.23-2.33 42.32-21.43 107.87-56.59 150.5-77.17z"/>
			</g>
			<g id="&lt;Group&gt;">
				<path id="&lt;Path&gt;" class="s0" d="m6477.73 543.87c0.77-1.55 5.58-4.26 8.04-5.65 36.6-19.49 73.36-38.97 110.02-58.46 2.83-1.28 25.69-13.7 27.78-12.72 0.21 0.49-0.98 1.78-3.2 3.48-3.37 2.61-24.61 13.78-28.57 15.91-34.91 18.32-69.76 36.91-104.91 54.77-2.02 0.93-3.94 1.71-5.45 2.23-2.41 0.84-3.78 1.02-3.72 0.49z"/>
			</g>
			<g id="&lt;Group&gt;">
				<path id="&lt;Path&gt;" class="s0" d="m6623.87 508.97c-0.85 1.51-5.69 4.32-8.18 5.72-40.48 21.09-94.45 52.23-138.33 65.36 39.64-20.83 94.56-47.08 134.82-67.2 2.52-1.23 5.82-2.67 8.1-3.45 2.38-0.83 3.71-1.01 3.6-0.48z"/>
			</g>
			<g id="&lt;Group&gt;">
				<path id="&lt;Path&gt;" class="s0" d="m6481.95 461.13c2.44-3.17 8.76-7.27 12.61-9.98 33.29-22.5 79.31-58.82 111.98-80.84 2.46-1.49 7.24-5.12 8.62-4.97-19.05 19.46-98.5 78.44-128.01 94.47-1.5 0.73-5.66 2.91-5.24 1.39z"/>
			</g>
			<g id="&lt;Group&gt;">
				<path id="&lt;Path&gt;" class="s0" d="m6482.64 521.87c0.86-1.52 5.69-4.32 8.18-5.72 36.73-19.5 88.68-46.9 125.47-66.39 2.92-1.34 8.91-4.94 11.15-4.41-0.31 1.5-5.32 4.69-7.56 6.19-35.36 21.93-88.06 47.98-125.44 66.38-2.51 1.24-5.79 2.69-8.08 3.49-2.48 0.88-3.87 1.07-3.73 0.51z"/>
			</g>
			<g id="&lt;Group&gt;">
				<path id="&lt;Path&gt;" class="s0" d="m6621.1 391.41c0.18 0.44-0.97 1.79-3.08 3.63-2.97 2.6-23.53 16.58-27.01 18.88-34.32 22.29-68.75 44.52-103.32 66.48-11.1 6.57-12.92 4.48-1.82-3.03 36.73-23.69 90.1-58.57 126.92-82.21 2.21-1.28 6.94-4.42 8.3-3.79z"/>
			</g>
			<g id="&lt;Group&gt;">
				<path id="&lt;Path&gt;" class="s0" d="m6630.75 552.44c-1.47 2.7-7.99 5.91-11.73 7.57-9.7 4.24-31.36 12.92-40.78 17.81-11.36 5.63-21.77 13.09-33.07 18.59-18.71 8.68-38.26 15.64-57.35 23.4-3.52 1.67-19.91 6.28-8.15-0.25 20.53-9.44 42.27-16.48 62.74-26.11 5.83-2.89 11.38-6.3 16.95-9.66 15.38-9.37 43.77-21.44 60.25-28.59 2.29-0.98 5.1-2.08 7.22-2.71 2.57-0.78 4.03-0.83 3.93-0.11z"/>
			</g>
			<g id="&lt;Group&gt;">
				<path id="&lt;Path&gt;" class="s0" d="m6475.7 444.36c38.67-30.72 93.73-72.69 131.81-101.85 2.29-1.63 3.53-2.34 3.42-1.92-19.51 21.01-107.09 88.37-132.15 102.98-1.42 0.8-4.55 2.46-3.15 0.86z"/>
			</g>
			<g id="&lt;Group&gt;">
				<path id="&lt;Path&gt;" class="s0" d="m6478.33 559.59c1.01-1.66 6.29-3.84 9.06-4.93 40.97-14.75 94.95-45.23 132.35-67.59 5.13-2.68 5-1.52 0.82 1.81-35.92 25.02-91.34 54.59-132.58 69.73-2.46 0.69-9.44 2.82-9.68 1.04z"/>
			</g>
			<g id="&lt;Group&gt;">
				<path id="&lt;Path&gt;" class="s0" d="m6475.4 506.2c42.54-26 102.88-63.65 146.32-89.31 2.55-1.41 3.9-2.02 3.73-1.65-23.87 19.2-121.63 79.13-147.33 90.57-1.49 0.65-4.4 1.79-2.8 0.45z"/>
			</g>
			<g id="&lt;Group&gt;">
				<path id="&lt;Path&gt;" class="s0" d="m6473.39 645.2c38.86-19.04 100.12-44.85 139.05-63.03 2.72-1.24 6.21-2.81 8.57-3.76 2.5-1.01 3.88-1.39 3.85-1.02-21.81 16.58-114.89 57.05-146.42 67.1-1.62 0.46-6.07 1.84-5.11 0.75z"/>
			</g>
			<g id="&lt;Group&gt;">
				<path id="&lt;Path&gt;" class="s0" d="m6482.02 398.69c33.66-28.17 69.49-55.26 102.07-81.59 2.96-2.11 18.15-16.05 20.58-16.63-16.61 19.64-89.17 78.11-117.82 96.14-1.48 0.87-5.56 3.41-4.87 2.14z"/>
			</g>
			<g id="&lt;Group&gt;">
				<path id="&lt;Path&gt;" class="s0" d="m6474.24 710.87c33.38-17.22 79.26-39.34 113.7-56.18 2.58-1.23 5.87-2.78 8.13-3.71 2.3-0.96 3.55-1.29 3.48-0.89-21.89 17.33-96.24 52.29-121.52 60.5-1.39 0.41-5.09 1.5-3.86 0.34z"/>
			</g>
			<g id="&lt;Group&gt;">
				<path id="&lt;Path&gt;" class="s0" d="m6598.76 281.07c1.63-0.71-1.83 2.91-2.32 3.48-18.95 19.37-85.62 77.06-109.5 88.81-0.35-0.13 0.55-1.16 2.46-2.87 1.87-1.67 4.74-4.02 7-5.85 29.35-23.32 73.35-61.5 102.29-83.54z"/>
			</g>
			<g id="&lt;Group&gt;">
				<path id="&lt;Path&gt;" class="s0" d="m6608.49 322.15c-31.24 30.56-80.46 64.8-115.69 90.76-2.74 1.84-8.09 6.02-10.48 6.22 0.92-2.29 6.37-6.15 8.92-8.27 34.97-26.32 82.04-63.09 117.24-88.72z"/>
			</g>
			<g id="&lt;Group&gt;">
				<path id="&lt;Path&gt;" class="s0" d="m6615.03 605.31c-2.91 3.36-28.45 12.42-33 14.57-33.79 14.69-68.03 28.44-101.35 44.1-3.78 1.58-10.52 5.19-13.68 5.6 37.09-21.89 96.72-42.97 136.09-60.75 2.58-1.14 5.88-2.46 8.25-3.19 2.43-0.76 3.8-0.9 3.71-0.37z"/>
			</g>
			<g id="&lt;Group&gt;">
				<path id="&lt;Path&gt;" class="s0" d="m6479.66 357.95c27.61-24.82 57.16-48.41 85.74-73.03 2.25-1.9 20.8-18.67 22.78-20.2 2.03-1.57 3.17-2.28 3.17-1.93-16.13 19.92-84.54 78.16-107.7 93.51-1.26 0.78-4.79 3.04-4.03 1.71z"/>
			</g>
			<g id="&lt;Group&gt;">
				<path id="&lt;Path&gt;" class="s0" d="m6474.99 694.13c34.95-18.76 86.15-42.82 120.45-60.33 3.16-1.37 9.21-4.99 11.55-5.02-20.32 15.5-96.73 53.43-126.73 64.32-1.55 0.5-6.01 2.12-5.32 1.08z"/>
			</g>
			<g id="&lt;Group&gt;">
				<path id="&lt;Path&gt;" class="s0" d="m6453.33 762.79c1.07-1.54 5.66-3.71 8.22-4.91 34.65-14.52 79.1-37.3 113.95-50.89-31.31 19.49-76.16 39.94-110.61 53.34-2.6 0.99-6.01 2.09-8.36 2.61-2.24 0.5-3.42 0.47-3.22-0.09z"/>
			</g>
			<g id="&lt;Group&gt;">
				<path id="&lt;Path&gt;" class="s0" d="m6480.52 308.09c22.88-23.09 54.49-53.58 77.53-75.71 2.04-1.9 4.61-4.28 6.45-5.83 1.72-1.44 2.7-2.07 2.74-1.71-13.12 19.04-63.63 67.51-83.09 81.73-1.12 0.77-4.46 3.08-3.67 1.59z"/>
			</g>
			<g id="&lt;Group&gt;">
				<path id="&lt;Path&gt;" class="s0" d="m6580.55 243.23c1.62-0.77-1.84 3.09-2.34 3.7-18.18 19.91-76.02 72.62-98.5 85.7-0.32-0.08 0.5-1.06 2.23-2.72 1.72-1.64 4.31-3.94 6.38-5.75 26.6-22.87 64.66-58.24 92.16-80.9z"/>
			</g>
			<g id="&lt;Group&gt;">
				<path id="&lt;Path&gt;" class="s0" d="m6589.22 676.58c-1.55 1.87-7.13 4.61-10 6.12-31.9 15.68-74.66 39.61-108.2 51.66-4.74 1.31-4.73 0.24-0.61-2.21 31.72-15.92 75.83-36.48 107.85-51.84 2.45-1.14 5.58-2.47 7.81-3.24 2.1-0.73 3.25-0.92 3.16-0.53z"/>
			</g>
			<g id="&lt;Group&gt;">
				<path id="&lt;Path&gt;" class="s0" d="m6566.18 735.83c-23.88 16.39-78.28 42.1-106.18 50.58-2.83 0.7-7.86 2.52-10.02 2.25 1.55-1.58 6.51-3.24 9.12-4.51 26.82-10.95 80.08-38.41 107.07-48.34z"/>
			</g>
			<g id="&lt;Group&gt;">
				<path id="&lt;Path&gt;" class="s0" d="m6540.25 789.27c-1.55 2.04-18.84 10.48-21.62 12.04-21.47 11.13-42.9 22.82-66.6 28.88-2.12 0.45-6.02 1.68-7.08 0.98 0.55-1.16 4.59-2.76 6.56-3.73 22.07-9.79 44.24-19.57 66.33-29.31 2.38-1.02 17.73-8.17 19.86-8.78 1.72-0.49 2.64-0.55 2.56-0.13z"/>
			</g>
			<g id="&lt;Group&gt;">
				<path id="&lt;Path&gt;" class="s0" d="m6482.64 279.67c0.04-1.26 3.12-4.28 4.53-5.93 16.24-17.37 32.57-34.75 48.84-52.08 2.24-2.1 18.05-18.77 20.44-19.27 0.27 0.19-0.14 1.15-1.13 2.69-1.15 1.79-2.99 4.22-4.53 6.12-15.39 18.43-42.61 49.8-61.73 64.53-1.75 1.28-5.18 4.08-6.39 3.97z"/>
			</g>
			<g id="&lt;Group&gt;">
				<path id="&lt;Path&gt;" class="s0" d="m6449.44 810.51c1.02-1.12 4.77-2.79 6.9-3.83 20.94-9.67 60.3-25.27 81.13-34.86 2.34-1.07 5.25-2.37 7.33-3.12 1.77-0.65 2.81-0.85 2.9-0.53-13.89 12.57-67.06 33.14-90.09 40.85-1.9 0.57-4.34 1.25-5.96 1.58-1.64 0.33-2.43 0.32-2.24-0.05z"/>
			</g>
			<g id="&lt;Group&gt;">
				<path id="&lt;Path&gt;" class="s0" d="m6523.3 166.04c0.1 1.26-1.78 4.69-2.68 6.66-9.5 19.01-20.72 37.04-35.61 52.37-2.07 1.92-5.33 5.86-7.51 6.36 0.06-2.18 3.43-5.98 4.86-8.34 12.1-17.17 24.23-34.43 36.35-51.58 1.3-1.68 3.45-5.07 4.56-5.48z"/>
			</g>
			<g id="&lt;Group&gt;">
				<path id="&lt;Path&gt;" class="s0" d="m6528.24 130.34c-0.3 2.46-3.03 6.58-4.53 9.19-10.44 16.52-32.01 51-46.01 64.92-1.49 1.34-3.95 4.11-5.17 4-0.09-1.38 2.25-4.32 3.41-6.15 11.29-15.87 34.22-49.22 45.56-65.02 1.44-1.92 3.36-4.32 4.77-5.77 1.14-1.16 1.83-1.6 1.96-1.22z"/>
			</g>
			<g id="&lt;Group&gt;">
				<path id="&lt;Path&gt;" class="s0" d="m6473.23 174.05c0.18-2.54 2.66-6.24 4.14-8.79 7.57-11.65 23.41-37.66 31.04-49.32 1.44-2.19 3.26-4.96 4.72-6.8 0.86-1.08 1.39-1.52 1.52-1.25 0.13 1.24-1.25 4.07-2.01 5.86-6.19 13.63-22.68 40.47-31.38 52.56-1.22 1.55-6.65 9.09-8.01 7.81z"/>
			</g>
			<g id="&lt;Group&gt;">
				<path id="&lt;Path&gt;" class="s0" d="m6487.99 66.77c0.65 2.26-0.28 5.53-0.84 7.96-1.86 6.18-9.2 28.79-11.68 34.74-4.33 8.11-3.86-1.85-2.49-5.23 1.26-2.92 11.99-39 14.96-37.57z"/>
			</g>
			<g id="&lt;Group&gt;">
				<path id="&lt;Path&gt;" class="s0" d="m6469.39 90.26c-1.22-1.41-0.68-4.99-0.82-7.02 0.22-8-0.26-30 0.34-37.6 0.72-4.16 2.54 18.62 2.71 19.63 1.32 6.8 1.45 14.48-0.49 21.55-0.37 1.17-0.83 3.13-1.67 3.45z"/>
			</g>
			<g id="&lt;Group&gt;">
				<path id="&lt;Path&gt;" class="s0" d="m6292.6 393.05c2-0.11 23.34 19.19 25.61 21.3 36.91 36.65 79.29 67.03 120.48 98.49 4.81 3.75 4.34 3.78-0.72 0.52-43.83-28.72-86.02-59.98-123.35-96.75-1.91-2.13-23.08-21.9-22.07-23.54z"/>
			</g>
			<g id="&lt;Group&gt;">
				<path id="&lt;Path&gt;" class="s0" d="m6440.51 590.04c-0.57 1.33-4.67-0.43-6.36-1.03-36-16.29-129.94-76.94-151.16-103.35 0.18-0.33 1.76 0.58 4.35 2.48 24.32 19.4 62.4 48.06 89.41 63.74 17.9 10.87 36.13 21.01 54.47 31.04 2.84 1.66 8.74 5.17 9.29 7.06z"/>
			</g>
			<g id="&lt;Group&gt;">
				<path id="&lt;Path&gt;" class="s0" d="m6441.33 554.45c-46.01-28.98-114.73-79-153.64-117.33-3.96-3.97-3.84-4.26 0.54-0.65 41.39 35.33 109.51 85.7 153.11 117.98z"/>
			</g>
			<g id="&lt;Group&gt;">
				<path id="&lt;Path&gt;" class="s0" d="m6291.39 413.25c37.1 40.39 100.56 86.41 146.46 116.87 2.51 1.85 3.71 3.03 3.27 3.26-26.64-7.71-138.72-97.05-149.8-120.18z"/>
			</g>
			<g id="&lt;Group&gt;">
				<path id="&lt;Path&gt;" class="s0" d="m6319.53 265.27c1.59 0.34 18.43 17.85 20.49 19.83 34.6 34.4 69.21 68.92 103.81 103.37 2.27 2.43 7.63 7.46 7.86 9.73-1.35 0.32-6.19-4.12-8.19-5.79-35.94-33.22-71.05-67.42-104.1-103.54-1.85-2.01-4.05-4.59-5.5-6.52-1.67-2.21-14.92-17.01-14.42-17.08z"/>
			</g>
			<g id="&lt;Group&gt;">
				<path id="&lt;Path&gt;" class="s0" d="m6449.23 417.97c-1.79-0.04-6.92-3.61-9.32-5.47-41.75-33.24-90.83-81.62-125.2-122.3-3.57-5.29-1.79-5.88 3.01-2.09 38.67 36.14 82.61 89.42 124.66 121.89 1.77 1.49 3.4 2.97 4.62 4.23 2.15 2.18 3.01 3.6 2.29 3.73z"/>
			</g>
			<g id="&lt;Group&gt;">
				<path id="&lt;Path&gt;" class="s0" d="m6441.11 437.73c-43.88-35.23-98.77-87.06-134.83-130.5 0.11-0.13 13.85 12.42 15.81 14.26 39.39 38.59 80.18 77.25 119.02 116.23z"/>
			</g>
			<g id="&lt;Group&gt;">
				<path id="&lt;Path&gt;" class="s0" d="m6437.91 628.6c-2.02 0.37-7.62-1.83-10.5-3.12-44.38-20.7-99.83-58.55-138.3-88.45-4.42-4.21 11.37 6.1 16.54 8.66 30.2 18.27 58.98 39.23 88.93 57.99 10.7 7.05 22.07 12.92 33.77 18.15 2.27 1.15 10.9 5.23 9.62 6.75z"/>
			</g>
			<g id="&lt;Group&gt;">
				<path id="&lt;Path&gt;" class="s0" d="m6443.32 458.76c-1.85-0.07-6.72-3.67-9.08-5.55-39.92-33.02-93.41-82.46-129.55-119.51-3.95-4.95-2.27-5.49 2.6-2.07 38.5 32.96 89.94 82.98 127.75 116.8 2 1.94 9.81 8.91 8.34 10.32z"/>
			</g>
			<g id="&lt;Group&gt;">
				<path id="&lt;Path&gt;" class="s0" d="m6457.77 308.4c-32.62-29.97-59.69-66.69-86.19-102.31-1.84-2.82-13.96-22.47-13.75-24.99 2.51 0.6 14.21 20.24 16.44 22.76 27.49 34.82 56.85 69.38 83.52 104.53z"/>
			</g>
			<g id="&lt;Group&gt;">
				<path id="&lt;Path&gt;" class="s0" d="m6284.2 459.73c42.81 35.67 105.52 77.82 151.3 109.54 4.56 3.22 4.5 3.37-0.25 0.39-46.9-30.01-111.31-70.35-151.06-109.92z"/>
			</g>
			<g id="&lt;Group&gt;">
				<path id="&lt;Path&gt;" class="s0" d="m6452.79 368.26c1.54 2.14-1.78-0.58-2.47-1.13-21.68-18.49-102.83-103.86-119.03-128.43-0.01-0.43 1.22 0.59 3.39 2.77 35.24 37.58 83.3 88.54 118.05 126.7z"/>
			</g>
			<g id="&lt;Group&gt;">
				<path id="&lt;Path&gt;" class="s0" d="m6301.5 359.04c43.27 35.6 94.35 85.48 142.83 114.59 4.81 2.99 4.66 3.11-0.3 0.41-49.79-27.24-101.99-76.23-142.54-114.99z"/>
			</g>
			<g id="&lt;Group&gt;">
				<path id="&lt;Path&gt;" class="s0" d="m6296.54 374.17c41.23 37.64 100.27 86.74 146.81 119.06 2.57 1.93 3.85 3.08 3.5 3.18-30.3-14.53-127-93.98-148.73-119.12-1.19-1.42-3.31-4.14-1.65-3.17z"/>
			</g>
			<g id="&lt;Group&gt;">
				<path id="&lt;Path&gt;" class="s0" d="m6284.13 511.66c1.79 0.04 21.07 16.34 23.53 18.04 38.74 28.11 81.2 50.46 122.71 74.55 2.22 1.38 7.58 4.29 7.81 5.55-0.19 0.3-1.86-0.18-4.49-1.3-40.56-20.42-79.11-45.42-117.99-69.1-5.08-3.32-25.44-20.22-29.52-24.3-1.99-1.99-2.77-3.3-2.1-3.43z"/>
			</g>
			<g id="&lt;Group&gt;">
				<path id="&lt;Path&gt;" class="s0" d="m6453.29 347.23c-2.03-0.45-6.12-4.5-8.22-6.77-30.19-34.37-74.99-84.31-104.43-119.32-3.38-5.11-1.63-5.44 2.68-1.68 31.47 33.52 74.7 85.17 105.53 119.39 1.49 1.91 6.25 7.72 4.51 8.38z"/>
			</g>
			<g id="&lt;Group&gt;">
				<path id="&lt;Path&gt;" class="s0" d="m6433.81 646.19c1.6 1.35-3.16-0.23-3.88-0.45-28.21-9.9-111.11-56.34-135.33-82.24-0.07-0.44 1.19 0.24 3.47 1.81 37.53 28.52 94.03 59.54 135.68 80.83z"/>
			</g>
			<g id="&lt;Group&gt;">
				<path id="&lt;Path&gt;" class="s0" d="m6459.25 288.11c0.42 1.5-3.45-2.26-4.11-2.82-22.06-21.45-71.86-87.21-84.99-113.77 2.11 0.86 13.75 20.96 15.94 23.42 24.13 31.12 49.9 61.69 73.14 93.11z"/>
			</g>
			<g id="&lt;Group&gt;">
				<path id="&lt;Path&gt;" class="s0" d="m6348.79 200.65c-2.24-4.05 19.54 23.11 22.19 26.04 21.52 25.95 68.87 81.06 82.94 98.98 1.14 3.21-7.99-5.88-8.99-7-28.98-31.83-73.68-80.79-96.08-117.91z"/>
			</g>
			<g id="&lt;Group&gt;">
				<path id="&lt;Path&gt;" class="s0" d="m6458.39 272.1c0.87 2.24-1.94-1.13-2.54-1.82-15.99-20.27-66.03-90.87-77.44-116.42 0.27-0.53 1.48 0.26 3.31 2.19 19.13 24.54 41.42 62.43 59.26 88 5.78 8.85 12.71 18.76 17.37 27.96z"/>
			</g>
			<g id="&lt;Group&gt;">
				<path id="&lt;Path&gt;" class="s0" d="m6430.61 685.13c-39.58-17.28-92.9-53.77-126.15-81.62-3.71-3.19-3.65-3.53 0.46-0.71 35.09 25.08 87.72 61.91 125.69 82.32z"/>
			</g>
			<g id="&lt;Group&gt;">
				<path id="&lt;Path&gt;" class="s0" d="m6420.21 745.14c-37.44-15.87-87.79-51.84-114.67-82.84-3.02-3.54-2.96-3.89 0.51-0.64 28.88 28.71 79.2 63.34 114.17 83.47z"/>
			</g>
			<g id="&lt;Group&gt;">
				<path id="&lt;Path&gt;" class="s0" d="m6301.12 586.55c35.57 24.29 88.86 60.23 128.35 78.21 4.49 2.17 4.29 2.32-0.32 0.56-40.6-15.84-94.86-51.04-128.04-78.77z"/>
			</g>
			<g id="&lt;Group&gt;">
				<path id="&lt;Path&gt;" class="s0" d="m6304.5 623.13c13.59 7.76 49.22 35.6 63.01 43.82 19 12.19 39.89 21.61 59.96 32.27 2.13 1.24 3.16 2.08 2.85 2.34-18.14-2.15-114.29-62.45-125.88-78.45z"/>
			</g>
			<g id="&lt;Group&gt;">
				<path id="&lt;Path&gt;" class="s0" d="m6303.08 638.9c1.87 0.54 28.67 22.94 31.04 24.64 28.54 21.3 57.14 43.42 90.19 57.48 2.18 1.08 3.25 1.78 2.94 1.97-18.64-1.69-115.32-66.72-124.24-84.11z"/>
			</g>
			<g id="&lt;Group&gt;">
				<path id="&lt;Path&gt;" class="s0" d="m6416.99 762.34c-36-15.92-81.6-44.68-110.96-71.45-3.23-3.01 7.45 4.51 11.05 7.2 30.96 24.56 66.31 43.96 99.92 64.24z"/>
			</g>
			<g id="&lt;Group&gt;">
				<path id="&lt;Path&gt;" class="s0" d="m6410.93 778.39c-2.74-0.07-8.23-3.01-11.29-4.6-29.78-16.45-73.35-40.87-94.74-69.16 0.26-0.2 1.51 0.52 3.45 1.94 19.23 15.13 46.93 38.75 67.99 50.65 9.03 5.34 18.51 10.26 27.62 15.38 1.94 1.15 3.67 2.28 4.92 3.22 1.93 1.43 2.71 2.38 2.11 2.55z"/>
			</g>
			<g id="&lt;Group&gt;">
				<path id="&lt;Path&gt;" class="s0" d="m6386.65 143.91c1.79 0.78 10.79 15.2 12.46 17.48 17.03 24.92 33.89 49.99 50.85 74.95 1.46 2.16 3.21 4.97 4.24 6.98 1.01 1.92 1.37 3.07 0.98 3.17-1.5-0.33-4.59-4.32-6.2-6.3-18.17-24.3-34.54-49.9-51.51-75.03-1.18-1.88-12.66-20.64-10.88-21.27z"/>
			</g>
			<g id="&lt;Group&gt;">
				<path id="&lt;Path&gt;" class="s0" d="m6309.08 727.47c2.48 1.48 18.86 13.48 21.64 15.71 23.47 19.66 51.49 33.56 78.9 48.09 1.97 1.18 2.9 1.97 2.56 2.2-19.14-2.73-95.59-51.85-103.17-66.04z"/>
			</g>
			<g id="&lt;Group&gt;">
				<path id="&lt;Path&gt;" class="s0" d="m6452.2 218.08c-1.73-0.7-4.25-4.33-5.73-6.51-12.81-20.95-34.74-58.16-47.46-79.17-7.67-13.08 5.01 1.56 12.78 14.27 12.76 21.41 26.03 42.61 38.51 64.17 0.84 1.84 3.51 6.87 1.97 7.25z"/>
			</g>
			<g id="&lt;Group&gt;">
				<path id="&lt;Path&gt;" class="s0" d="m6409.84 809.78c-25.88-10.19-74.05-39.96-93.15-60.51-2.43-2.67-2.34-2.91 0.45-0.54 20.43 19.12 69.53 46.15 92.71 61.04z"/>
			</g>
			<g id="&lt;Group&gt;">
				<path id="&lt;Path&gt;" class="s0" d="m6407.29 839.49c-2.24 0-6.16-2.65-8.65-3.88-16.36-9.21-45.1-23.29-56.97-36.51-1.2-1.46-3.61-3.9-3.57-5.03 1.15-0.12 3.65 2.08 5.19 3.13 13.75 10.66 42.4 24.43 57 35.82 2.09 1.84 6.13 4.4 7.02 6.44z"/>
			</g>
			<g id="&lt;Group&gt;">
				<path id="&lt;Path&gt;" class="s0" d="m6333.12 775.34c2.07 0.18 5.36 2.98 7.56 4.29 10.95 7.5 44.11 27.51 55.1 35.06 2.37 1.64 5.24 3.75 7.17 5.57 1.12 1.07 1.65 1.81 1.48 2.12-0.15 0.29-0.93 0.2-2.22-0.27-2.57-0.95-5.65-2.61-8.19-4.1-12.38-7.37-46.53-27.93-56.98-37.95-1.36-1.41-3.76-3.46-3.94-4.69z"/>
			</g>
			<g id="&lt;Group&gt;">
				<path id="&lt;Path&gt;" class="s0" d="m6448.87 183.43c-1.96-1.41-4.08-5.58-5.59-8.08-7.94-14.61-15.97-29.32-23.85-43.95-1.09-2.11-9.35-17.13-9.87-19.14-0.42-1.62-0.39-2.64 0.1-2.84 0.47-0.22 1.39 0.37 2.57 1.66 2.45 2.69 11.77 19.08 13.5 22.51 7.18 14.57 14.73 29.1 21.54 43.79 0.65 1.52 1.15 2.85 1.47 3.86 0.47 1.47 0.53 2.25 0.18 2.2z"/>
			</g>
			<g id="&lt;Group&gt;">
				<path id="&lt;Path&gt;" class="s0" d="m6421.39 93.15c2.04 1.29 9.7 15.44 11.17 17.85 6.25 11.62 12.61 23.36 18.76 35.08 5.54 11.45 2.43 12.51-3.57 1.68-5.77-11.07-11.49-22.35-17.22-33.5-1.35-2.68-8.56-16.46-9.29-19.1-0.37-1.37-0.34-2.08 0.09-2.02z"/>
			</g>
			<g id="&lt;Group&gt;">
				<path id="&lt;Path&gt;" class="s0" d="m6405.52 857.34c-3.27-0.15-7.4-2.87-10.44-4.62-8.51-5.38-17.19-10.58-25.61-16.08-12.64-9.25-2.68-6.48 4.43-1.81 3.83 2.94 34.23 19.59 31.7 22.48z"/>
			</g>
			<g id="&lt;Group&gt;">
				<path id="&lt;Path&gt;" class="s0" d="m6436.12 66.18c2.13 1.92 8.16 18.37 9.35 21.23 2.87 8.5 6.58 16.95 8.74 25.64 1.95 10.5-3.75 0.46-5.69-6.07-1.15-4.46-15.29-39.41-12.47-40.83z"/>
			</g>
		</g>
	</g>
</svg>