<svg version="1.2" xmlns="http://www.w3.org/2000/svg" viewBox="6280 0 400 900" width="32" height="32">
	<style>
		.s0 { fill: #b86c3b }
	</style>
	<g id="Capa 1">
		<g id="&lt;Group&gt;">
			<g id="&lt;Group&gt;">
				<path id="&lt;Compound Path&gt;" class="s0" d="m6491.46 63.86c24.5 29.84 41.65 64.31 55.62 100.21 7.89 20.49 14.94 41.47 26.88 60.07 8.45 13.75 18.74 26.66 24.78 41.66 5.47 12.89 8.1 26.82 10.42 40.6 5.91 35.57 13.48 70.78 20.26 106.19 1.25 7.1 2.19 14.2 2.26 21.29 0.37 15.15-4.75 30.11-5.78 45.1-2.4 35.32 16.73 50.86 4.85 90.73-16.26 48.74-34.43 96.89-51.73 145.26-2.58 6.9-5.47 13.66-8.9 20.19-2.47 4.74-5.16 9.36-7.75 14.04-11.74 20.43-18.68 43.57-30.07 64.45-16.49 30.12-46.64 47.92-74.83 65.77-16.88 11.31-31.36 14.27-32.55 37.89-4.06 38.43-7.44 77.1-11.04 115.51-0.79 3.48-2.12 6.75-4.16 9.43-5.39 7.43-16.1 8.5-18.72-1.22-1.9-6.9-0.39-14.66 0.43-21.75 4.53-31.85 9.14-63.65 13.66-95.44 3.17-18.47 0.24-28.9-11.92-42.94-8.73-10.6-17.25-21.27-26.3-31.56-11.95-13.26-23.87-26.85-28.73-44.18-2.32-7.86-3.71-16.07-7.38-23.46-2.49-5.3-5.99-10.23-9.25-15.13-24.43-36.21-19.11-81.43-19.49-122.91 0.14-22.17-2.16-44.02-7.41-65.56-4.34-18.92-10.06-37.64-12.85-56.9-2.74-18.64-3.04-37.5-1.46-56.24 4.07-38.72 12.44-76.76 17.32-115.37 2.36-16.87 4.32-33.99 8.59-50.47 5.12-20.25 12.59-39.75 21-58.85 21.01-48 49.82-91.3 82.17-132.24 15.42-19.25 24.18-42.23 32.41-65.3 5.51-13.97 14.76-13.45 25.92-3.78 8.98 7.28 16.56 15.70 23.57 24.67zm-43.73 789.68c1.46-1.94 6.78-3.4 9.54-4.72 18.18-7.72 37.39-13.74 54.87-23.03 7.36-4.48 12.42-11.07 16.64-18.67 6.12-10.74 11.75-21.77 15.88-33.45 1.98-5.4 3.93-10.83 6.33-16.05 4.17-9.25 10.2-17.61 14.62-26.76 3.85-7.71 6.82-15.82 9.88-23.87 16.16-43.87 32.5-87.63 47.43-131.92 1.98-6.52 3.62-13.09 4.54-19.72 3.95-21.33-6.94-41.65-7.53-62.74-1.25-18.51 4.93-36.94 5.33-55.24 0.14-9.27-1.34-18.48-3.04-27.59-6.47-32.96-12.99-65.91-18.35-99.1-1.96-12.21-4.24-24.62-8.59-36.15-6.16-17.5-17.96-32.27-27.91-47.65-5.66-8.85-10.74-18.07-14.38-27.95-2.57-6.01-3.99-15.59-9.89-18.52-4.73-1.06-8.44 4.76-10.98 8.41-9.31 14.52-17.96 29.73-29.35 42.54-3.71 4.1-8.39 9.33-13 12.05-1.47 0.82-1.88 0.5-1.13-0.89 2.49-4.22 12.06-13.9 16.38-19.21 7.8-9.37 14.78-19.39 21.29-29.69 5.24-8.42 10.92-16.82 11.25-26.37 0.37-9.21-3.92-18.04-7.41-26.41-12.93-30.18-31.85-57.49-52.13-83.21-4.29-5.87-17.18-20.53-19.53-6.91-0.74 7.39 1.28 15.1 1.91 22.51 1.51 14.5 2.57 29.18 3.87 43.66 0.63 4.29 0.41 10.65 4.08 13.26 6.32 2.19 14.69-12.93 18.68-18.78 8.34-13.41 4.05-0.83 1.15 4.34-5.2 10.08-13.96 18.52-18.17 28.93-3.25 7.72-4.3 16.12-4.9 24.42-0.79 12.84-1.06 25.51-0.81 38.19-0.08 25.37 7 50.12 7.58 75.42 0.83 20.94-2.35 41.77-3.98 62.6-2.09 30.97 2.66 62.23 1.16 93.24-0.3 19.12-4.75 37.91-6.54 56.83-5.47 92.99-4.54 186.89-21.63 278.75-5.55 30.5-8.93 61.43-10.75 92.35-1.76 18.3 6.16 18.11 21.46 9.13 3.33-1.77 17.73-10.04 14.24-10.21-5.57 1.34-12.82 4.96-18.3 6.51-5.5 1.56-3.97-0.07-0.62-2.02 3.74-2.3 8.46-4.41 12.5-6.53 12.1-6.19 25.53-7.96 35.85-15.99 3.63-2.73 7.58-6.52 10.06-10.15 5.15-8.39-8.44-1.69-11.43-0.16-12.72 6.45-25.79 12.61-39.67 15.81-1.52 0.35-2.84 0.61-3.89 0.77-1.57 0.23-2.48 0.22-2.6-0.03zm-0.38-806.9c-0.93-0.11-1.9 0.61-2.89 2.02-2.11 3.27-3.57 7.47-5.06 11.22-10.79 28.31-27.83 53.3-46.49 76.94-32.87 43.37-59.72 89.46-79.56 153.48-8.9 34.36-11.88 70.26-17.63 105.3-7.47 49.17-17.68 95.96-4.13 145.37 6.35 23.72 14.76 47.13 16.18 71.83 1.33 23.69 0.49 47.34 0.74 71.06-0.04 27.7 2.52 56.32 18.4 79.69 6.32 8.94 13.14 17.87 15.33 28.81 1.62 6.98 2.78 14.14 5.62 20.76 9.11 20.58 27.38 36.98 41.35 54.63 7.69 8.08 22.65 32.27 24.45 6.03 2.37-59.41 18.02-117 25.71-175.76 4.98-40.74 6.06-81.85 9.13-122.78 2.68-30.3 4.11-60.68 6.04-91.04 0.82-11.8 2-23.56 3.27-35.32 5.33-43.8 4.16-88.16 7.85-132.15 1.01-14.65 1.27-29.35 0.17-43.98-1.33-19.31-5.95-38.47-6.81-57.88-1.77-43.32 3.24-86.86-2.93-130.04-1.4-9.23-2.41-35.29-8.64-38.17z"/>
			</g>
		</g>
	</g>
</svg>
